# xmcd
#
# Track frame offsets: 
#        150
#        17515
#        35279
#        52669
#
# Disc length: 877 seconds
#
# Revision: 0
# Processed by: cddbd v1.5.2PL0 Copyright (c) Steve Scherf et al.
# Submitted via: ExactAudioCopy v0.99pb5
#
DISCID=1e036b04
DTITLE=Akon - Locked Up
DYEAR=2003
DGENRE=hipHop
TTITLE0=Locked Up (Radio Version feat. Azad)
TTITLE1=Locked Up (Album Version without Rap)
TTITLE2=Locked Up (Remix Dirty feat. Styles P)
TTITLE3=Locked Up (Gunshot)
EXTD=
EXTT0=
EXTT1=
EXTT2=
EXTT3=
PLAYORDER=
